<svg width="21" height="24" viewBox="0 0 21 24" fill="none" xmlns="http://www.w3.org/2000/svg">
<g clip-path="url(#clip0)">
<path d="M10.4993 24C12.1549 24 13.4979 22.657 13.4979 21H7.50071C7.50071 22.657 8.84367 24 10.4993 24ZM20.5957 16.9823C19.6901 16.0092 17.9956 14.5453 17.9956 9.75C17.9956 6.10781 15.4418 3.19219 11.9984 2.47688V1.5C11.9984 0.671719 11.3271 0 10.4993 0C9.67149 0 9.00024 0.671719 9.00024 1.5V2.47688C5.5568 3.19219 3.00305 6.10781 3.00305 9.75C3.00305 14.5453 1.30852 16.0092 0.402894 16.9823C0.121644 17.2847 -0.00304376 17.6461 -0.000700013 18C0.00445624 18.7687 0.607737 19.5 1.50399 19.5H19.4946C20.3909 19.5 20.9946 18.7687 20.9993 18C21.0016 17.6461 20.877 17.2842 20.5957 16.9823V16.9823Z" fill="white"/>
</g>
<defs>
<clipPath id="clip0">
<rect width="21" height="24" fill="white"/>
</clipPath>
</defs>
</svg>
